<svg width="16" height="16" viewBox="0 0 16 16" fill="none" xmlns="http://www.w3.org/2000/svg">
<path d="M4.7797 15.1667C3.19304 15.1667 1.89307 14.0134 1.89307 12.5934V11.2333C1.89307 10.96 2.11973 10.7333 2.39307 10.7333C2.6664 10.7333 2.89307 10.96 2.89307 11.2333C2.89307 12.0667 3.6997 12.6933 4.7797 12.6933C5.8597 12.6933 6.66638 12.0667 6.66638 11.2333C6.66638 10.96 6.89305 10.7333 7.16638 10.7333C7.43972 10.7333 7.66638 10.96 7.66638 11.2333V12.5934C7.66638 14.0134 6.37304 15.1667 4.7797 15.1667ZM3.06637 13.2467C3.3597 13.7934 4.0197 14.1667 4.7797 14.1667C5.5397 14.1667 6.19971 13.7867 6.49304 13.2467C6.01971 13.5334 5.43304 13.7 4.7797 13.7C4.12637 13.7 3.5397 13.5334 3.06637 13.2467Z" fill="#353535"/>
<path d="M4.7797 11.8666C3.68637 11.8666 2.70639 11.3666 2.21973 10.5733C2.00639 10.2266 1.89307 9.81993 1.89307 9.4066C1.89307 8.7066 2.19972 8.05326 2.75972 7.56659C3.83972 6.61993 5.69971 6.61996 6.78638 7.55996C7.34638 8.05329 7.65971 8.7066 7.65971 9.4066C7.65971 9.81993 7.54638 10.2266 7.33305 10.5733C6.85305 11.3666 5.87304 11.8666 4.7797 11.8666ZM4.7797 7.83328C4.2597 7.83328 3.77972 8.0066 3.41972 8.31993C3.07972 8.61326 2.89307 8.99993 2.89307 9.4066C2.89307 9.63993 2.95304 9.85329 3.07304 10.0533C3.37971 10.56 4.03304 10.8733 4.7797 10.8733C5.52637 10.8733 6.1797 10.56 6.4797 10.06C6.5997 9.86663 6.65971 9.64661 6.65971 9.41327C6.65971 9.00661 6.47306 8.61993 6.13306 8.31993C5.77972 8.0066 5.2997 7.83328 4.7797 7.83328Z" fill="#353535"/>
<path d="M4.7797 13.7C3.13304 13.7 1.89307 12.64 1.89307 11.24V9.40664C1.89307 7.98664 3.18637 6.83331 4.7797 6.83331C5.53304 6.83331 6.25305 7.09333 6.79305 7.56C7.35305 8.05333 7.66638 8.70664 7.66638 9.40664V11.24C7.66638 12.64 6.42637 13.7 4.7797 13.7ZM4.7797 7.83331C3.7397 7.83331 2.89307 8.53997 2.89307 9.40664V11.24C2.89307 12.0733 3.6997 12.7 4.7797 12.7C5.8597 12.7 6.66638 12.0733 6.66638 11.24V9.40664C6.66638 8.99997 6.47973 8.61329 6.13973 8.31329C5.77973 8.00663 5.2997 7.83331 4.7797 7.83331Z" fill="#353535"/>
<path d="M12.6931 9.86662C11.6864 9.86662 10.8331 9.11995 10.7531 8.15995C10.6998 7.60662 10.8998 7.06663 11.2998 6.6733C11.6331 6.32663 12.1064 6.1333 12.6064 6.1333H13.9998C14.6598 6.1533 15.1664 6.67327 15.1664 7.31327V8.68665C15.1664 9.32665 14.6598 9.84662 14.0198 9.86662H12.6931ZM13.9798 7.1333H12.6131C12.3798 7.1333 12.1665 7.21996 12.0131 7.37996C11.8198 7.56663 11.7264 7.81995 11.7531 8.07328C11.7864 8.51328 12.2131 8.86662 12.6931 8.86662H13.9998C14.0864 8.86662 14.1664 8.78665 14.1664 8.68665V7.31327C14.1664 7.21327 14.0864 7.13997 13.9798 7.1333Z" fill="#353535"/>
<path d="M10.6667 14.1666H9C8.72667 14.1666 8.5 13.94 8.5 13.6666C8.5 13.3933 8.72667 13.1666 9 13.1666H10.6667C12.3867 13.1666 13.5 12.0533 13.5 10.3333V9.86664H12.6933C11.6867 9.86664 10.8333 9.11997 10.7533 8.15997C10.7 7.60664 10.9 7.06665 11.3 6.67332C11.6333 6.32665 12.1066 6.13332 12.6066 6.13332H13.4933V5.66665C13.4933 4.10665 12.58 3.0333 11.1 2.85997C10.94 2.8333 10.8 2.83331 10.66 2.83331H4.65999C4.49999 2.83331 4.34665 2.84664 4.19332 2.86664C2.72665 3.0533 1.82666 4.11998 1.82666 5.66665V6.99998C1.82666 7.27331 1.59999 7.49998 1.32666 7.49998C1.05333 7.49998 0.82666 7.27331 0.82666 6.99998V5.66665C0.82666 3.61331 2.09335 2.12665 4.06002 1.87998C4.24002 1.85332 4.44666 1.83331 4.65999 1.83331H10.66C10.82 1.83331 11.0267 1.83998 11.24 1.87331C13.2067 2.09998 14.4933 3.59331 14.4933 5.66665V6.63332C14.4933 6.90665 14.2667 7.13332 13.9933 7.13332H12.6066C12.3733 7.13332 12.16 7.21998 12.0067 7.37998C11.8133 7.56665 11.72 7.81997 11.7467 8.0733C11.78 8.5133 12.2067 8.86664 12.6867 8.86664H14C14.2733 8.86664 14.5 9.09331 14.5 9.36664V10.3333C14.5 12.6266 12.96 14.1666 10.6667 14.1666Z" fill="#353535"/>
</svg>
