<svg width="16" height="16" viewBox="0 0 16 16" fill="none" xmlns="http://www.w3.org/2000/svg">
<path d="M8.66654 9.83331H7.99987C7.72654 9.83331 7.49987 9.60665 7.49987 9.33331C7.49987 9.05998 7.72654 8.83331 7.99987 8.83331H8.66654C9.12654 8.83331 9.49987 8.45998 9.49987 7.99998V1.83331H3.99987C3.21321 1.83331 2.49319 2.25997 2.10652 2.94664C1.97319 3.18664 1.66655 3.27333 1.42655 3.13999C1.18655 3.00666 1.09986 2.69998 1.23319 2.45998C1.79319 1.45998 2.85321 0.833313 3.99987 0.833313H9.99987C10.2732 0.833313 10.4999 1.05998 10.4999 1.33331V7.99998C10.4999 9.01331 9.67987 9.83331 8.66654 9.83331Z" fill="#717171"/>
<path d="M12.6666 13.8333H12C11.7266 13.8333 11.5 13.6066 11.5 13.3333C11.5 12.8733 11.1266 12.5 10.6666 12.5C10.2066 12.5 9.83331 12.8733 9.83331 13.3333C9.83331 13.6066 9.60665 13.8333 9.33331 13.8333H6.66665C6.39331 13.8333 6.16665 13.6066 6.16665 13.3333C6.16665 12.8733 5.79331 12.5 5.33331 12.5C4.87331 12.5 4.49998 12.8733 4.49998 13.3333C4.49998 13.6066 4.27331 13.8333 3.99998 13.8333H3.33331C1.95331 13.8333 0.833313 12.7133 0.833313 11.3333C0.833313 11.06 1.05998 10.8333 1.33331 10.8333C1.60665 10.8333 1.83331 11.06 1.83331 11.3333C1.83331 12.16 2.50665 12.8333 3.33331 12.8333H3.56663C3.78663 12.0666 4.49331 11.5 5.33331 11.5C6.17331 11.5 6.88 12.0666 7.1 12.8333H8.90664C9.12664 12.0666 9.83332 11.5 10.6733 11.5C11.5133 11.5 12.22 12.0666 12.44 12.8333H12.6666C13.4933 12.8333 14.1666 12.16 14.1666 11.3333V9.83331H12.6666C12.0266 9.83331 11.5 9.30665 11.5 8.66665V6.66665C11.5 6.02665 12.02 5.49998 12.6666 5.49998L11.9533 4.25332C11.8066 3.99332 11.5267 3.83331 11.2267 3.83331H10.5V7.99998C10.5 9.01331 9.67998 9.83331 8.66665 9.83331H7.99998C7.72665 9.83331 7.49998 9.60665 7.49998 9.33331C7.49998 9.05998 7.72665 8.83331 7.99998 8.83331H8.66665C9.12665 8.83331 9.49998 8.45998 9.49998 7.99998V3.33331C9.49998 3.05998 9.72665 2.83331 9.99998 2.83331H11.2267C11.8867 2.83331 12.4933 3.18666 12.82 3.75999L13.96 5.75332C14.0466 5.90665 14.0466 6.09998 13.96 6.25332C13.8733 6.40665 13.7066 6.49998 13.5266 6.49998H12.6666C12.5733 6.49998 12.5 6.57331 12.5 6.66665V8.66665C12.5 8.75998 12.5733 8.83331 12.6666 8.83331H14.6666C14.94 8.83331 15.1666 9.05998 15.1666 9.33331V11.3333C15.1666 12.7133 14.0466 13.8333 12.6666 13.8333Z" fill="#717171"/>
<path d="M5.33333 15.1667C4.32 15.1667 3.5 14.3467 3.5 13.3333C3.5 12.32 4.32 11.5 5.33333 11.5C6.34667 11.5 7.16667 12.32 7.16667 13.3333C7.16667 14.3467 6.34667 15.1667 5.33333 15.1667ZM5.33333 12.5C4.87333 12.5 4.5 12.8733 4.5 13.3333C4.5 13.7933 4.87333 14.1667 5.33333 14.1667C5.79333 14.1667 6.16667 13.7933 6.16667 13.3333C6.16667 12.8733 5.79333 12.5 5.33333 12.5Z" fill="#717171"/>
<path d="M10.6666 15.1667C9.65331 15.1667 8.83331 14.3467 8.83331 13.3333C8.83331 12.32 9.65331 11.5 10.6666 11.5C11.68 11.5 12.5 12.32 12.5 13.3333C12.5 14.3467 11.68 15.1667 10.6666 15.1667ZM10.6666 12.5C10.2066 12.5 9.83331 12.8733 9.83331 13.3333C9.83331 13.7933 10.2066 14.1667 10.6666 14.1667C11.1266 14.1667 11.5 13.7933 11.5 13.3333C11.5 12.8733 11.1266 12.5 10.6666 12.5Z" fill="#717171"/>
<path d="M14.6667 9.83333H12.6667C12.0267 9.83333 11.5 9.30667 11.5 8.66667V6.66667C11.5 6.02667 12.0267 5.5 12.6667 5.5H13.5267C13.7067 5.5 13.8733 5.59334 13.96 5.75334L15.1 7.75334C15.14 7.82667 15.1667 7.91333 15.1667 8V9.33333C15.1667 9.60667 14.94 9.83333 14.6667 9.83333ZM12.6667 6.5C12.5733 6.5 12.5 6.57333 12.5 6.66667V8.66667C12.5 8.76 12.5733 8.83333 12.6667 8.83333H14.1667V8.13334L13.2333 6.5H12.6667Z" fill="#717171"/>
<path d="M5.33331 5.83331H1.33331C1.05998 5.83331 0.833313 5.60665 0.833313 5.33331C0.833313 5.05998 1.05998 4.83331 1.33331 4.83331H5.33331C5.60665 4.83331 5.83331 5.05998 5.83331 5.33331C5.83331 5.60665 5.60665 5.83331 5.33331 5.83331Z" fill="#717171"/>
<path d="M3.99998 7.83331H1.33331C1.05998 7.83331 0.833313 7.60665 0.833313 7.33331C0.833313 7.05998 1.05998 6.83331 1.33331 6.83331H3.99998C4.27331 6.83331 4.49998 7.05998 4.49998 7.33331C4.49998 7.60665 4.27331 7.83331 3.99998 7.83331Z" fill="#717171"/>
<path d="M2.66665 9.83331H1.33331C1.05998 9.83331 0.833313 9.60665 0.833313 9.33331C0.833313 9.05998 1.05998 8.83331 1.33331 8.83331H2.66665C2.93998 8.83331 3.16665 9.05998 3.16665 9.33331C3.16665 9.60665 2.93998 9.83331 2.66665 9.83331Z" fill="#717171"/>
</svg>
