<svg width="17" height="16" viewBox="0 0 17 16" fill="none" xmlns="http://www.w3.org/2000/svg">
<path d="M8.49998 15.1666C4.54665 15.1666 1.33331 11.9533 1.33331 7.99992C1.33331 4.04659 4.54665 0.833252 8.49998 0.833252C12.4533 0.833252 15.6666 4.04659 15.6666 7.99992C15.6666 11.9533 12.4533 15.1666 8.49998 15.1666ZM8.49998 1.83325C5.09998 1.83325 2.33331 4.59992 2.33331 7.99992C2.33331 11.3999 5.09998 14.1666 8.49998 14.1666C11.9 14.1666 14.6666 11.3999 14.6666 7.99992C14.6666 4.59992 11.9 1.83325 8.49998 1.83325Z" fill="white"/>
<path d="M7.55334 10.3867C7.42 10.3867 7.29334 10.3334 7.2 10.2401L5.31333 8.3534C5.12 8.16007 5.12 7.84007 5.31333 7.64673C5.50667 7.4534 5.82667 7.4534 6.02 7.64673L7.55334 9.18007L10.98 5.7534C11.1733 5.56007 11.4933 5.56007 11.6867 5.7534C11.88 5.94673 11.88 6.26673 11.6867 6.46006L7.90667 10.2401C7.81334 10.3334 7.68667 10.3867 7.55334 10.3867Z" fill="white"/>
</svg>
