<svg width="23" height="23" viewBox="0 0 23 23" fill="none" xmlns="http://www.w3.org/2000/svg">
<path d="M6.24612 16.3813C3.45069 13.5859 3.45069 9.04156 6.24612 6.24613C9.04155 3.4507 13.5859 3.4507 16.3813 6.24613C19.1767 9.04156 19.1767 13.5859 16.3813 16.3813C13.5859 19.1768 9.04155 19.1768 6.24612 16.3813ZM15.6742 6.95323C13.27 4.54907 9.35739 4.54907 6.95323 6.95323C4.54907 9.3574 4.54907 13.2701 6.95323 15.6742C9.35739 18.0784 13.27 18.0784 15.6742 15.6742C18.0784 13.2701 18.0784 9.3574 15.6742 6.95323Z" fill="#417F56"/>
<path d="M8.29202 11.6672C8.20245 11.5777 8.14588 11.4551 8.14588 11.3137C8.14588 11.0403 8.37216 10.814 8.64557 10.814H13.9819C14.2553 10.814 14.4816 11.0403 14.4816 11.3137C14.4816 11.5871 14.2553 11.8134 13.9819 11.8134H8.64557C8.50886 11.8181 8.38158 11.7568 8.29202 11.6672Z" fill="#417F56"/>
<path d="M10.9602 14.3354C10.8706 14.2458 10.814 14.1233 10.814 13.9818L10.814 8.64555C10.814 8.37213 11.0403 8.14586 11.3137 8.14586C11.5871 8.14586 11.8134 8.37213 11.8134 8.64555L11.8134 13.9818C11.8134 14.2553 11.5871 14.4815 11.3137 14.4815C11.1723 14.4815 11.0497 14.425 10.9602 14.3354Z" fill="#417F56"/>
</svg>
