<svg width="16" height="17" viewBox="0 0 16 17" fill="none" xmlns="http://www.w3.org/2000/svg">
<path d="M8.00016 15.6666C7.58016 15.6666 7.18683 15.5067 6.89349 15.2067L5.88017 14.1933C5.80017 14.1133 5.58683 14.0267 5.48016 14.0267H4.04016C3.17349 14.0267 2.47349 13.3266 2.47349 12.4599V11.02C2.47349 10.9133 2.38682 10.7 2.30682 10.62L1.2935 9.60667C1.00016 9.31333 0.833496 8.91998 0.833496 8.49998C0.833496 8.07998 0.993498 7.68662 1.2935 7.39329L2.30682 6.37994C2.38682 6.29994 2.47349 6.08662 2.47349 5.97996V4.54002C2.47349 3.67335 3.17349 2.97328 4.04016 2.97328H5.48016C5.58683 2.97328 5.80017 2.88662 5.88017 2.80662L6.89349 1.79327C7.48016 1.2066 8.52017 1.2066 9.10683 1.79327L10.1202 2.80662C10.2002 2.88662 10.4135 2.97328 10.5202 2.97328H11.9602C12.8268 2.97328 13.5268 3.67335 13.5268 4.54002V5.97996C13.5268 6.08662 13.6135 6.29994 13.6935 6.37994L14.7068 7.39329C15.0002 7.68662 15.1668 8.07998 15.1668 8.49998C15.1668 8.91998 15.0068 9.31333 14.7068 9.60667L13.6935 10.62C13.6135 10.7 13.5268 10.9133 13.5268 11.02V12.4599C13.5268 13.3266 12.8268 14.0267 11.9602 14.0267H10.5202C10.4135 14.0267 10.2002 14.1133 10.1202 14.1933L9.10683 15.2067C8.8135 15.5067 8.42016 15.6666 8.00016 15.6666ZM3.01349 9.91331C3.28016 10.18 3.47349 10.6467 3.47349 11.02V12.4599C3.47349 12.7733 3.72683 13.0267 4.04016 13.0267H5.48016C5.8535 13.0267 6.32017 13.22 6.58683 13.4866L7.60016 14.5C7.81349 14.7133 8.18683 14.7133 8.40017 14.5L9.41349 13.4866C9.68016 13.22 10.1468 13.0267 10.5202 13.0267H11.9602C12.2735 13.0267 12.5268 12.7733 12.5268 12.4599V11.02C12.5268 10.6467 12.7202 10.18 12.9868 9.91331L14.0002 8.89996C14.1068 8.79329 14.1668 8.65331 14.1668 8.49998C14.1668 8.34664 14.1068 8.20666 14.0002 8.09999L12.9868 7.08665C12.7202 6.81998 12.5268 6.35329 12.5268 5.97996V4.54002C12.5268 4.22668 12.2735 3.97328 11.9602 3.97328H10.5202C10.1468 3.97328 9.68016 3.77999 9.41349 3.51332L8.40017 2.49998C8.18683 2.28664 7.81349 2.28664 7.60016 2.49998L6.58683 3.51332C6.32017 3.77999 5.8535 3.97328 5.48016 3.97328H4.04016C3.72683 3.97328 3.47349 4.22668 3.47349 4.54002V5.97996C3.47349 6.35329 3.28016 6.81998 3.01349 7.08665L2.00016 8.09999C1.8935 8.20666 1.8335 8.34664 1.8335 8.49998C1.8335 8.65331 1.8935 8.79329 2.00016 8.89996L3.01349 9.91331Z" fill="#353535"/>
<path d="M10 11.1666C9.62667 11.1666 9.32666 10.8666 9.32666 10.5C9.32666 10.1333 9.62666 9.83331 9.99333 9.83331C10.36 9.83331 10.66 10.1333 10.66 10.5C10.66 10.8666 10.3667 11.1666 10 11.1666Z" fill="#353535"/>
<path d="M6.00684 7.16665C5.6335 7.16665 5.3335 6.86665 5.3335 6.49998C5.3335 6.13331 5.6335 5.83331 6.00016 5.83331C6.36683 5.83331 6.66683 6.13331 6.66683 6.49998C6.66683 6.86665 6.3735 7.16665 6.00684 7.16665Z" fill="#353535"/>
<path d="M5.9998 11C5.87313 11 5.74646 10.9534 5.64646 10.8534C5.45313 10.66 5.45313 10.34 5.64646 10.1466L9.64647 6.14665C9.8398 5.95331 10.1598 5.95331 10.3531 6.14665C10.5465 6.33998 10.5465 6.66002 10.3531 6.85335L6.35313 10.8534C6.25313 10.9534 6.12646 11 5.9998 11Z" fill="#353535"/>
</svg>
