<svg width="16" height="16" viewBox="0 0 16 16" fill="none" xmlns="http://www.w3.org/2000/svg">
<path d="M2.61992 11.0866C2.49325 11.0866 2.36658 11.04 2.26658 10.94C2.07325 10.7466 2.07325 10.4266 2.26658 10.2333L10.2332 2.26664C10.4266 2.07331 10.7466 2.07331 10.9399 2.26664C11.1332 2.45998 11.1332 2.77998 10.9399 2.97331L2.97325 10.9466C2.87992 11.04 2.74658 11.0866 2.61992 11.0866Z" fill="#717171"/>
<path d="M7.40019 12.6866C7.27352 12.6866 7.14686 12.64 7.04686 12.54C6.85352 12.3466 6.85352 12.0266 7.04686 11.8333L7.84686 11.0333C8.04019 10.84 8.36019 10.84 8.55352 11.0333C8.74686 11.2266 8.74686 11.5466 8.55352 11.74L7.75352 12.54C7.66019 12.6333 7.53352 12.6866 7.40019 12.6866Z" fill="#717171"/>
<path d="M9.19316 10.8934C9.06649 10.8934 8.93982 10.8467 8.83982 10.7467C8.64649 10.5534 8.64649 10.2334 8.83982 10.04L10.4332 8.4467C10.6265 8.25336 10.9465 8.25336 11.1398 8.4467C11.3332 8.64003 11.3332 8.96003 11.1398 9.15336L9.54649 10.7467C9.45316 10.84 9.31982 10.8934 9.19316 10.8934Z" fill="#717171"/>
<path d="M7.39978 15.1667C6.74645 15.1667 6.09311 14.7667 5.29978 13.9734L2.02645 10.7C0.433113 9.10669 0.43978 8.08002 2.04645 6.47336L6.47311 2.04669C8.07978 0.440024 9.10645 0.433357 10.6998 2.02669L13.9731 5.30002C15.5664 6.89336 15.5598 7.92002 13.9531 9.52669L9.52645 13.9534C8.71978 14.76 8.05978 15.1667 7.39978 15.1667ZM8.59978 1.83336C8.25311 1.83336 7.81311 2.12002 7.17978 2.75336L2.75311 7.18002C2.11978 7.81336 1.83311 8.25336 1.83311 8.59336C1.83311 8.94002 2.09978 9.36002 2.73311 9.99336L6.00645 13.2667C6.63978 13.9 7.05311 14.1667 7.39978 14.1667C7.39978 14.1667 7.39978 14.1667 7.40645 14.1667C7.75311 14.1667 8.18645 13.88 8.81978 13.2467L13.2464 8.82002C13.8798 8.18669 14.1664 7.74669 14.1664 7.40669C14.1664 7.06002 13.8998 6.64002 13.2664 6.00669L9.99311 2.73336C9.36645 2.10002 8.94645 1.83336 8.59978 1.83336Z" fill="#717171"/>
<path d="M14.6668 15.1667H1.3335C1.06016 15.1667 0.833496 14.94 0.833496 14.6667C0.833496 14.3934 1.06016 14.1667 1.3335 14.1667H14.6668C14.9402 14.1667 15.1668 14.3934 15.1668 14.6667C15.1668 14.94 14.9402 15.1667 14.6668 15.1667Z" fill="#717171"/>
</svg>
