<svg width="16" height="16" viewBox="0 0 16 16" fill="none" xmlns="http://www.w3.org/2000/svg">
<path d="M10.9933 15.1666H4.99996C3.85329 15.1666 2.99329 14.86 2.45996 14.2533C1.92662 13.6466 1.71995 12.7666 1.85995 11.6266L2.45996 6.62665C2.63329 5.15331 3.00663 3.83331 5.60663 3.83331H10.4066C13 3.83331 13.3733 5.15331 13.5533 6.62665L14.1533 11.6266C14.2866 12.7666 14.0866 13.6533 13.5533 14.2533C13 14.86 12.1466 15.1666 10.9933 15.1666ZM5.59995 4.83331C3.67995 4.83331 3.58662 5.5933 3.44662 6.73997L2.84663 11.74C2.74663 12.5866 2.86662 13.2066 3.20662 13.5866C3.54662 13.9666 4.14662 14.16 4.99996 14.16H10.9933C11.8466 14.16 12.4466 13.9666 12.7866 13.5866C13.1266 13.2066 13.2466 12.5866 13.1466 11.74L12.5466 6.73997C12.4066 5.58664 12.32 4.83331 10.3933 4.83331H5.59995Z" fill="#717171"/>
<path d="M10.6666 5.83331C10.3933 5.83331 10.1666 5.60665 10.1666 5.33331V2.99998C10.1666 2.27998 9.71998 1.83331 8.99998 1.83331H6.99998C6.27998 1.83331 5.83331 2.27998 5.83331 2.99998V5.33331C5.83331 5.60665 5.60665 5.83331 5.33331 5.83331C5.05998 5.83331 4.83331 5.60665 4.83331 5.33331V2.99998C4.83331 1.72665 5.72665 0.833313 6.99998 0.833313H8.99998C10.2733 0.833313 11.1666 1.72665 11.1666 2.99998V5.33331C11.1666 5.60665 10.94 5.83331 10.6666 5.83331Z" fill="#717171"/>
<path d="M13.6066 11.8533H5.33331C5.05998 11.8533 4.83331 11.6267 4.83331 11.3533C4.83331 11.08 5.05998 10.8533 5.33331 10.8533H13.6066C13.88 10.8533 14.1066 11.08 14.1066 11.3533C14.1066 11.6267 13.88 11.8533 13.6066 11.8533Z" fill="#717171"/>
</svg>
