<svg width="24" height="24" viewBox="0 0 24 24" fill="none" xmlns="http://www.w3.org/2000/svg">
<rect width="24" height="24" rx="4" fill="#E5F2E9"/>
<path d="M16.1263 15.8333H9.02634C8.36634 15.8333 7.733 15.5533 7.28634 15.0667C6.83967 14.58 6.61301 13.9267 6.66634 13.2667L7.21968 6.62668C7.23968 6.42001 7.16634 6.22001 7.02634 6.06668C6.88634 5.91335 6.693 5.83334 6.48634 5.83334H5.33301C5.05967 5.83334 4.83301 5.60668 4.83301 5.33334C4.83301 5.06001 5.05967 4.83334 5.33301 4.83334H6.49301C6.97968 4.83334 7.43967 5.04001 7.76634 5.39334C7.94634 5.59334 8.07967 5.82668 8.15301 6.08668H16.4797C17.153 6.08668 17.773 6.35334 18.2263 6.83334C18.673 7.32001 18.8997 7.95335 18.8463 8.62668L18.4863 13.6267C18.413 14.8467 17.3463 15.8333 16.1263 15.8333ZM8.18634 7.08001L7.66634 13.3467C7.63301 13.7333 7.75967 14.1 8.01967 14.3867C8.27967 14.6733 8.63967 14.8267 9.02634 14.8267H16.1263C16.8197 14.8267 17.4463 14.24 17.4997 13.5467L17.8597 8.54668C17.8863 8.15335 17.7597 7.78002 17.4997 7.50668C17.2397 7.22668 16.8797 7.07333 16.4863 7.07333H8.18634V7.08001Z" fill="#417F56"/>
<path d="M14.8333 19.1667C14.1 19.1667 13.5 18.5667 13.5 17.8333C13.5 17.1 14.1 16.5 14.8333 16.5C15.5667 16.5 16.1667 17.1 16.1667 17.8333C16.1667 18.5667 15.5667 19.1667 14.8333 19.1667ZM14.8333 17.5C14.6467 17.5 14.5 17.6467 14.5 17.8333C14.5 18.02 14.6467 18.1667 14.8333 18.1667C15.02 18.1667 15.1667 18.02 15.1667 17.8333C15.1667 17.6467 15.02 17.5 14.8333 17.5Z" fill="#417F56"/>
<path d="M9.50033 19.1667C8.76699 19.1667 8.16699 18.5667 8.16699 17.8333C8.16699 17.1 8.76699 16.5 9.50033 16.5C10.2337 16.5 10.8337 17.1 10.8337 17.8333C10.8337 18.5667 10.2337 19.1667 9.50033 19.1667ZM9.50033 17.5C9.31366 17.5 9.16699 17.6467 9.16699 17.8333C9.16699 18.02 9.31366 18.1667 9.50033 18.1667C9.68699 18.1667 9.83366 18.02 9.83366 17.8333C9.83366 17.6467 9.68699 17.5 9.50033 17.5Z" fill="#417F56"/>
<path d="M18 9.83331H10C9.72667 9.83331 9.5 9.60665 9.5 9.33331C9.5 9.05998 9.72667 8.83331 10 8.83331H18C18.2733 8.83331 18.5 9.05998 18.5 9.33331C18.5 9.60665 18.2733 9.83331 18 9.83331Z" fill="#417F56"/>
</svg>
