<?xml version="1.0" encoding="UTF-8"?>
<!DOCTYPE svg PUBLIC "-//W3C//DTD SVG 1.1//EN" "http://www.w3.org/Graphics/SVG/1.1/DTD/svg11.dtd">
<svg xmlns="http://www.w3.org/2000/svg" version="1.1" width="512px" height="512px" style="shape-rendering:geometricPrecision; text-rendering:geometricPrecision; image-rendering:optimizeQuality; fill-rule:evenodd; clip-rule:evenodd" xmlns:xlink="http://www.w3.org/1999/xlink">
<g><path style="opacity:0.941" fill="#000000" d="M 95.5,8.5 C 202.167,8.33333 308.834,8.5 415.5,9C 432.774,12.6077 442.941,23.1077 446,40.5C 446.333,51.5 446.667,62.5 447,73.5C 459.667,94.1667 472.333,114.833 485,135.5C 485.667,151.833 485.667,168.167 485,184.5C 482.196,204.446 472.363,219.78 455.5,230.5C 454.5,302.164 454.167,373.83 454.5,445.5C 477.657,445.089 487.323,456.423 483.5,479.5C 483.629,486.269 483.129,492.936 482,499.5C 481.097,500.701 479.931,501.535 478.5,502C 454.5,502.667 430.5,502.667 406.5,502C 404.714,501.215 403.214,500.049 402,498.5C 401.333,495.5 401.333,492.5 402,489.5C 403.214,487.951 404.714,486.785 406.5,486C 426.497,485.5 446.497,485.333 466.5,485.5C 466.666,478.825 466.5,472.158 466,465.5C 465.097,464.299 463.931,463.465 462.5,463C 324.5,463.667 186.5,463.667 48.5,463C 47.0692,463.465 45.9025,464.299 45,465.5C 44.5004,472.158 44.3337,478.825 44.5,485.5C 159.5,485.333 274.5,485.5 389.5,486C 394.069,488.541 395.569,492.375 394,497.5C 393.167,499.667 391.667,501.167 389.5,502C 270.5,502.667 151.5,502.667 32.5,502C 30.3333,501.167 28.8333,499.667 28,497.5C 27.0576,484.43 27.3909,471.43 29,458.5C 35.1599,448.173 44.3266,443.84 56.5,445.5C 56.3333,379.832 56.5,314.166 57,248.5C 61.9268,241.365 67.2601,241.032 73,247.5C 73.5,313.499 73.6667,379.499 73.5,445.5C 82.1667,445.5 90.8333,445.5 99.5,445.5C 99.3333,390.832 99.5,336.166 100,281.5C 100.833,279.333 102.333,277.833 104.5,277C 144.167,276.333 183.833,276.333 223.5,277C 225.667,277.833 227.167,279.333 228,281.5C 228.5,336.166 228.667,390.832 228.5,445.5C 298.167,445.5 367.833,445.5 437.5,445.5C 437.5,376.5 437.5,307.5 437.5,238.5C 407.356,244.179 383.523,234.512 366,209.5C 348.101,235.518 323.601,245.018 292.5,238C 276.809,232.803 264.476,223.303 255.5,209.5C 234.706,238.596 207.372,247.096 173.5,235C 161.338,229.265 151.671,220.765 144.5,209.5C 124.284,237.729 97.6173,246.229 64.5,235C 42.6248,225.117 29.7915,208.284 26,184.5C 25.3333,168.5 25.3333,152.5 26,136.5C 38.9181,115.666 51.5847,94.666 64,73.5C 64.3333,62.5 64.6667,51.5 65,40.5C 68.2419,23.0941 78.4086,12.4275 95.5,8.5 Z M 97.5,25.5 C 202.834,25.3333 308.167,25.5 413.5,26C 420.181,28.0133 425.014,32.18 428,38.5C 429.417,47.7521 429.917,57.0854 429.5,66.5C 313.5,66.5 197.5,66.5 81.5,66.5C 81.0828,57.0854 81.5828,47.7521 83,38.5C 86.1625,32.1641 90.9958,27.8308 97.5,25.5 Z M 77.5,83.5 C 101.5,83.5 125.5,83.5 149.5,83.5C 145.675,99.1319 142.009,114.799 138.5,130.5C 108.831,130.667 79.1648,130.5 49.5,130C 59.2331,114.693 68.5664,99.1934 77.5,83.5 Z M 168.5,83.5 C 194.833,83.5 221.167,83.5 247.5,83.5C 247.5,99.1667 247.5,114.833 247.5,130.5C 217.159,130.833 186.826,130.5 156.5,129.5C 160.507,114.138 164.507,98.8045 168.5,83.5 Z M 263.5,83.5 C 290.167,83.5 316.833,83.5 343.5,83.5C 347.325,99.1319 350.991,114.799 354.5,130.5C 324.167,130.5 293.833,130.5 263.5,130.5C 263.5,114.833 263.5,99.1667 263.5,83.5 Z M 361.5,83.5 C 385.509,83.1669 409.509,83.5003 433.5,84.5C 442.708,99.7503 452.041,114.917 461.5,130C 432.167,130.667 402.833,130.667 373.5,130C 369.268,114.574 365.268,99.0741 361.5,83.5 Z M 42.5,147.5 C 73.8333,147.5 105.167,147.5 136.5,147.5C 136.667,158.505 136.5,169.505 136,180.5C 131.162,206.671 115.496,221.004 89,223.5C 63.8566,220.683 48.5233,207.017 43,182.5C 42.5001,170.838 42.3335,159.171 42.5,147.5 Z M 153.5,147.5 C 184.833,147.5 216.167,147.5 247.5,147.5C 247.821,160.205 247.321,172.872 246,185.5C 239.669,208.602 224.502,221.268 200.5,223.5C 175.552,221.047 160.052,207.713 154,183.5C 153.5,171.505 153.333,159.505 153.5,147.5 Z M 263.5,147.5 C 294.833,147.5 326.167,147.5 357.5,147.5C 357.667,159.838 357.5,172.171 357,184.5C 350.575,207.92 335.241,220.92 311,223.5C 287.191,221.019 271.857,208.352 265,185.5C 263.739,172.866 263.239,160.199 263.5,147.5 Z M 374.5,147.5 C 405.833,147.5 437.167,147.5 468.5,147.5C 468.667,159.171 468.5,170.838 468,182.5C 462.392,207.109 447.059,220.776 422,223.5C 395.026,220.858 379.36,206.192 375,179.5C 374.5,168.839 374.333,158.172 374.5,147.5 Z M 116.5,293.5 C 148.167,293.5 179.833,293.5 211.5,293.5C 211.5,316.167 211.5,338.833 211.5,361.5C 179.833,361.5 148.167,361.5 116.5,361.5C 116.5,338.833 116.5,316.167 116.5,293.5 Z M 263.5,293.5 C 309.5,293.5 355.5,293.5 401.5,293.5C 401.5,328.167 401.5,362.833 401.5,397.5C 355.5,397.5 309.5,397.5 263.5,397.5C 263.5,362.833 263.5,328.167 263.5,293.5 Z M 116.5,378.5 C 148.167,378.5 179.833,378.5 211.5,378.5C 211.5,400.833 211.5,423.167 211.5,445.5C 179.833,445.5 148.167,445.5 116.5,445.5C 116.5,423.167 116.5,400.833 116.5,378.5 Z"/></g>
<g><path style="opacity:0.966" fill="#fff" d="M 251.5,276.5 C 305.501,276.333 359.501,276.5 413.5,277C 414.667,278.167 415.833,279.333 417,280.5C 417.667,323.833 417.667,367.167 417,410.5C 415.786,412.049 414.286,413.215 412.5,414C 358.833,414.667 305.167,414.667 251.5,414C 250.333,412.833 249.167,411.667 248,410.5C 247.333,367.167 247.333,323.833 248,280.5C 249.376,279.295 250.542,277.962 251.5,276.5 Z M 263.5,293.5 C 263.5,328.167 263.5,362.833 263.5,397.5C 309.5,397.5 355.5,397.5 401.5,397.5C 401.5,362.833 401.5,328.167 401.5,293.5C 355.5,293.5 309.5,293.5 263.5,293.5 Z"/></g>
</svg>
