<svg width="16" height="16" viewBox="0 0 16 16" fill="none" xmlns="http://www.w3.org/2000/svg">
<path d="M9.33337 4.49998H6.66671C6.02671 4.49998 4.83337 4.49998 4.83337 2.66665C4.83337 0.833313 6.02671 0.833313 6.66671 0.833313H9.33337C9.97337 0.833313 11.1667 0.833313 11.1667 2.66665C11.1667 3.30665 11.1667 4.49998 9.33337 4.49998ZM6.66671 1.83331C6.00671 1.83331 5.83337 1.83331 5.83337 2.66665C5.83337 3.49998 6.00671 3.49998 6.66671 3.49998H9.33337C10.1667 3.49998 10.1667 3.32665 10.1667 2.66665C10.1667 1.83331 9.99337 1.83331 9.33337 1.83331H6.66671Z" fill="#717171"/>
<path d="M10 15.1666H6C2.25333 15.1666 1.5 13.4466 1.5 10.6666V6.66664C1.5 3.62664 2.6 2.32664 5.30667 2.18664C5.58 2.17331 5.82 2.37997 5.83333 2.65997C5.84667 2.93997 5.63333 3.16664 5.36 3.17997C3.46667 3.28664 2.5 3.85331 2.5 6.66664V10.6666C2.5 13.1333 2.98667 14.1666 6 14.1666H10C13.0133 14.1666 13.5 13.1333 13.5 10.6666V6.66664C13.5 3.85331 12.5333 3.28664 10.64 3.17997C10.3667 3.16664 10.1533 2.92664 10.1667 2.65331C10.18 2.37997 10.42 2.16664 10.6933 2.17997C13.4 2.32664 14.5 3.62664 14.5 6.65998V10.66C14.5 13.4466 13.7467 15.1666 10 15.1666Z" fill="#717171"/>
</svg>
