<svg width="12" height="12" viewBox="0 0 12 12" fill="none" xmlns="http://www.w3.org/2000/svg">
<path d="M4 2.875C3.795 2.875 3.625 2.705 3.625 2.5V1C3.625 0.795 3.795 0.625 4 0.625C4.205 0.625 4.375 0.795 4.375 1V2.5C4.375 2.705 4.205 2.875 4 2.875Z" fill="#717171"/>
<path d="M8 2.875C7.795 2.875 7.625 2.705 7.625 2.5V1C7.625 0.795 7.795 0.625 8 0.625C8.205 0.625 8.375 0.795 8.375 1V2.5C8.375 2.705 8.205 2.875 8 2.875Z" fill="#717171"/>
<path d="M4.25 7.24991C4.185 7.24991 4.12 7.23492 4.06 7.20992C3.995 7.18492 3.945 7.14991 3.895 7.10491C3.805 7.00991 3.75 6.88491 3.75 6.74991C3.75 6.68491 3.765 6.61991 3.79 6.55991C3.815 6.49991 3.85 6.44492 3.895 6.39492C3.945 6.34992 3.995 6.3149 4.06 6.2899C4.24 6.2149 4.465 6.25492 4.605 6.39492C4.695 6.48992 4.75 6.61991 4.75 6.74991C4.75 6.77991 4.745 6.81492 4.74 6.84992C4.735 6.87992 4.725 6.90991 4.71 6.93991C4.7 6.96991 4.685 6.99991 4.665 7.02991C4.65 7.05491 4.625 7.07991 4.605 7.10491C4.51 7.19491 4.38 7.24991 4.25 7.24991Z" fill="#717171"/>
<path d="M6 7.24994C5.935 7.24994 5.87 7.23494 5.81 7.20994C5.745 7.18494 5.695 7.14993 5.645 7.10493C5.555 7.00993 5.5 6.88494 5.5 6.74994C5.5 6.68494 5.515 6.61993 5.54 6.55993C5.565 6.49993 5.6 6.44494 5.645 6.39494C5.695 6.34994 5.745 6.31493 5.81 6.28993C5.99 6.20993 6.215 6.25494 6.355 6.39494C6.445 6.48994 6.5 6.61994 6.5 6.74994C6.5 6.77994 6.495 6.81494 6.49 6.84994C6.485 6.87994 6.475 6.90994 6.46 6.93994C6.45 6.96994 6.435 6.99994 6.415 7.02994C6.4 7.05494 6.375 7.07993 6.355 7.10493C6.26 7.19493 6.13 7.24994 6 7.24994Z" fill="#717171"/>
<path d="M7.75 7.24994C7.685 7.24994 7.62 7.23494 7.56 7.20994C7.495 7.18494 7.445 7.14993 7.395 7.10493C7.375 7.07993 7.355 7.05494 7.335 7.02994C7.315 6.99994 7.3 6.96994 7.29 6.93994C7.275 6.90994 7.265 6.87994 7.26 6.84994C7.255 6.81494 7.25 6.77994 7.25 6.74994C7.25 6.61994 7.305 6.48994 7.395 6.39494C7.445 6.34994 7.495 6.31493 7.56 6.28993C7.745 6.20993 7.965 6.25494 8.105 6.39494C8.195 6.48994 8.25 6.61994 8.25 6.74994C8.25 6.77994 8.245 6.81494 8.24 6.84994C8.235 6.87994 8.225 6.90994 8.21 6.93994C8.2 6.96994 8.185 6.99994 8.165 7.02994C8.15 7.05494 8.125 7.07993 8.105 7.10493C8.01 7.19493 7.88 7.24994 7.75 7.24994Z" fill="#717171"/>
<path d="M4.25 9.00009C4.185 9.00009 4.12 8.9851 4.06 8.9601C4 8.9351 3.945 8.90009 3.895 8.85509C3.805 8.76009 3.75 8.63009 3.75 8.50009C3.75 8.43509 3.765 8.37009 3.79 8.31009C3.815 8.24509 3.85 8.1901 3.895 8.1451C4.08 7.9601 4.42 7.9601 4.605 8.1451C4.695 8.2401 4.75 8.37009 4.75 8.50009C4.75 8.63009 4.695 8.76009 4.605 8.85509C4.51 8.94509 4.38 9.00009 4.25 9.00009Z" fill="#717171"/>
<path d="M6 9.00009C5.87 9.00009 5.74 8.94509 5.645 8.85509C5.555 8.76009 5.5 8.63009 5.5 8.50009C5.5 8.43509 5.515 8.37009 5.54 8.31009C5.565 8.24509 5.6 8.1901 5.645 8.1451C5.83 7.9601 6.17 7.9601 6.355 8.1451C6.4 8.1901 6.435 8.24509 6.46 8.31009C6.485 8.37009 6.5 8.43509 6.5 8.50009C6.5 8.63009 6.445 8.76009 6.355 8.85509C6.26 8.94509 6.13 9.00009 6 9.00009Z" fill="#717171"/>
<path d="M7.75 8.99996C7.62 8.99996 7.49 8.94495 7.395 8.85495C7.35 8.80995 7.315 8.75496 7.29 8.68996C7.265 8.62996 7.25 8.56496 7.25 8.49996C7.25 8.43496 7.265 8.36995 7.29 8.30995C7.315 8.24495 7.35 8.18996 7.395 8.14496C7.51 8.02996 7.685 7.97495 7.845 8.00995C7.88 8.01495 7.91 8.02495 7.94 8.03995C7.97 8.04995 8 8.06496 8.03 8.08496C8.055 8.09996 8.08 8.12496 8.105 8.14496C8.195 8.23996 8.25 8.36996 8.25 8.49996C8.25 8.62996 8.195 8.75995 8.105 8.85495C8.01 8.94495 7.88 8.99996 7.75 8.99996Z" fill="#717171"/>
<path d="M10.25 4.91992H1.75C1.545 4.91992 1.375 4.74992 1.375 4.54492C1.375 4.33992 1.545 4.16992 1.75 4.16992H10.25C10.455 4.16992 10.625 4.33992 10.625 4.54492C10.625 4.74992 10.455 4.91992 10.25 4.91992Z" fill="#717171"/>
<path d="M8 11.375H4C2.175 11.375 1.125 10.325 1.125 8.5V4.25C1.125 2.425 2.175 1.375 4 1.375H8C9.825 1.375 10.875 2.425 10.875 4.25V8.5C10.875 10.325 9.825 11.375 8 11.375ZM4 2.125C2.57 2.125 1.875 2.82 1.875 4.25V8.5C1.875 9.93 2.57 10.625 4 10.625H8C9.43 10.625 10.125 9.93 10.125 8.5V4.25C10.125 2.82 9.43 2.125 8 2.125H4Z" fill="#717171"/>
</svg>
