<svg width="54" height="54" viewBox="0 0 54 54" fill="none" xmlns="http://www.w3.org/2000/svg">
<path d="M33.75 51.1875H20.25C8.0325 51.1875 2.8125 45.9675 2.8125 33.75V20.25C2.8125 8.0325 8.0325 2.8125 20.25 2.8125H33.75C45.9675 2.8125 51.1875 8.0325 51.1875 20.25V33.75C51.1875 45.9675 45.9675 51.1875 33.75 51.1875ZM20.25 6.1875C9.8775 6.1875 6.1875 9.8775 6.1875 20.25V33.75C6.1875 44.1225 9.8775 47.8125 20.25 47.8125H33.75C44.1225 47.8125 47.8125 44.1225 47.8125 33.75V20.25C47.8125 9.8775 44.1225 6.1875 33.75 6.1875H20.25Z" fill="#F9F9F9"/>
<path d="M20.25 24.1875C16.83 24.1875 14.0625 21.42 14.0625 18C14.0625 14.58 16.83 11.8125 20.25 11.8125C23.67 11.8125 26.4375 14.58 26.4375 18C26.4375 21.42 23.67 24.1875 20.25 24.1875ZM20.25 15.1875C18.6975 15.1875 17.4375 16.4475 17.4375 18C17.4375 19.5525 18.6975 20.8125 20.25 20.8125C21.8025 20.8125 23.0625 19.5525 23.0625 18C23.0625 16.4475 21.8025 15.1875 20.25 15.1875Z" fill="#F9F9F9"/>
<path d="M6.00674 44.325C5.46674 44.325 4.92674 44.055 4.61174 43.5825C4.09424 42.8175 4.29674 41.76 5.08424 41.2425L16.1767 33.795C18.6067 32.1525 21.9592 32.355 24.1642 34.2225L24.9067 34.875C26.0317 35.8425 27.9442 35.8425 29.0467 34.875L38.4067 26.8425C40.7917 24.795 44.5492 24.795 46.9567 26.8425L50.6242 29.9925C51.3217 30.6 51.4117 31.6575 50.8042 32.3775C50.1967 33.075 49.1392 33.165 48.4192 32.5575L44.7517 29.4075C43.6267 28.44 41.7142 28.44 40.5892 29.4075L31.2292 37.44C28.8442 39.4875 25.0867 39.4875 22.6792 37.44L21.9367 36.7875C20.9017 35.91 19.1917 35.82 18.0442 36.6075L6.95174 44.055C6.65924 44.235 6.32174 44.325 6.00674 44.325Z" fill="#F9F9F9"/>
</svg>
