<svg width="40" height="40" viewBox="0 0 40 40" fill="none" xmlns="http://www.w3.org/2000/svg">
<rect width="40" height="40" rx="4" fill="#E5F2E9"/>
<path d="M19.5 29.75C13.85 29.75 9.25 25.15 9.25 19.5C9.25 13.85 13.85 9.25 19.5 9.25C25.15 9.25 29.75 13.85 29.75 19.5C29.75 25.15 25.15 29.75 19.5 29.75ZM19.5 10.75C14.67 10.75 10.75 14.68 10.75 19.5C10.75 24.32 14.67 28.25 19.5 28.25C24.33 28.25 28.25 24.32 28.25 19.5C28.25 14.68 24.33 10.75 19.5 10.75Z" fill="#417F56"/>
<path d="M30.0004 30.7504C29.8104 30.7504 29.6204 30.6804 29.4704 30.5304L27.4704 28.5304C27.1804 28.2404 27.1804 27.7604 27.4704 27.4704C27.7604 27.1804 28.2404 27.1804 28.5304 27.4704L30.5304 29.4704C30.8204 29.7604 30.8204 30.2404 30.5304 30.5304C30.3804 30.6804 30.1904 30.7504 30.0004 30.7504Z" fill="#417F56"/>
</svg>
