<svg width="120" height="112" viewBox="0 0 120 112" fill="none" xmlns="http://www.w3.org/2000/svg">
<g clip-path="url(#clip0_1479_41886)">
<path d="M93.2704 48.4181C92.571 49.2815 91.8808 50.1448 91.1952 51.0082V92.6101C91.1952 96.1727 88.2595 99.0719 84.652 99.0719H19.6342C16.0221 99.0719 13.091 96.1727 13.091 92.6101V28.4056C13.091 24.8384 16.0221 21.9438 19.6342 21.9438H81.0123C83.4649 19.0491 85.7379 16.3953 88.1307 13.7416L90.1737 11.4468L91.3517 10.1789C89.2626 9.4246 87.0033 9.01563 84.6474 9.01563H19.6342C8.80708 9.01108 0 17.7086 0 28.4056V92.6101C0 103.302 8.80708 112 19.6342 112H84.6474C95.4745 112 104.282 103.298 104.282 92.6101V35.2854C100.877 39.1843 97.2967 43.4558 93.2704 48.4181Z" fill="#417F56"/>
<path d="M119.063 3.24909C117.172 0.0999811 113.058 -0.936088 109.87 0.927019C108.084 1.97218 106.428 3.16275 104.817 4.40785C104.003 5.02585 103.253 5.69385 102.494 6.35729C101.739 7.02529 100.998 7.71145 100.266 8.40217C98.7848 9.7745 97.455 11.2695 96.0838 12.7328L94.0362 14.9367L92.0437 17.1769C89.3657 20.1488 86.789 23.1843 84.2168 26.2244L80.416 30.8231L76.7119 35.4854C71.8206 41.7336 67.0627 48.0591 62.5073 54.5209C60.2158 57.7427 57.975 60.9963 55.7525 64.2636C54.9334 65.4859 54.1236 66.7083 53.3183 67.9352C51.5744 66.4993 50.0053 64.9134 48.5881 63.1366C45.7076 59.5694 43.4621 55.207 41.594 50.4811L41.5526 50.3721C40.3056 47.2366 36.7855 45.5462 33.4863 46.5822C30.0398 47.6592 28.1303 51.2945 29.2208 54.6981C30.1319 57.5427 31.1856 60.3965 32.5108 63.2139C33.836 66.0267 35.4189 68.8077 37.3193 71.4433C39.2242 74.0699 41.4467 76.5374 43.8809 78.7231C46.315 80.9134 48.9562 82.8083 51.648 84.4442C54.9334 86.43 59.268 85.5439 61.4582 82.3675L61.5917 82.1767C63.7681 79.0139 66.0044 75.8784 68.2499 72.7521C70.4954 69.6257 72.7593 66.5129 75.0692 63.432C79.689 57.2746 84.364 51.1627 89.1955 45.2008C94.0316 39.2389 98.9551 33.3678 104.072 27.7103L105.986 25.5836L107.937 23.5024C109.244 22.121 110.532 20.7168 111.816 19.3263C113.095 17.9313 114.305 16.4544 115.502 14.9821C116.703 13.5098 117.858 11.9875 118.884 10.3198L119.036 10.0744C120.269 8.03863 120.37 5.42574 119.063 3.24909Z" fill="#417F56"/>
</g>
<defs>
<clipPath id="clip0_1479_41886">
<rect width="120" height="112" fill="white"/>
</clipPath>
</defs>
</svg>
