<svg width="120" height="116" viewBox="0 0 120 116" fill="none" xmlns="http://www.w3.org/2000/svg">
<g clip-path="url(#clip0_1480_41922)">
<path d="M115.146 27.8433C114.819 28.0838 101.254 38.7503 101.254 38.7503V94.1553C101.254 98.168 97.9946 101.433 93.989 101.433H21.801C17.7903 101.433 14.5357 98.168 14.5357 94.1553V21.8396C14.5357 17.8217 17.7903 14.5614 21.801 14.5614H87.1069C92.8088 10.4515 98.7099 6.52577 104.729 2.84063C101.561 1.02877 97.8925 0 93.989 0H21.801C9.77903 0 0 9.79633 0 21.8396V94.1553C0 106.199 9.77903 115.995 21.801 115.995H93.989C106.011 115.995 115.79 106.193 115.79 94.1553V27.3622L115.146 27.8433Z" fill="#C30000"/>
<path d="M108.959 7.07343C101.08 11.8539 93.4472 17.0028 86.1206 22.4947C78.8042 27.9968 71.6615 33.7139 64.7743 39.692C62.8533 41.3708 60.9475 43.0547 59.0469 44.754C58.4491 44.0477 57.8514 43.3362 57.2791 42.6043L54.6479 39.1751L53.3297 37.4656L52.0933 35.6896L49.6 32.1477C49.1708 31.5694 48.7927 30.9501 48.4095 30.3359C48.0212 29.7217 47.587 29.1433 47.0862 28.6059C46.5804 28.0685 46.0235 27.5618 45.3798 27.1063C44.7309 26.6507 44.0207 26.231 43.1113 25.9239L42.0792 25.5708C41.3435 25.3251 40.5669 25.1767 39.7545 25.1357C34.957 24.9054 30.8849 28.611 30.6499 33.4119C30.4609 37.2813 32.2491 40.0503 34.114 42.7118L36.9496 46.6938L38.375 48.6797L39.9027 50.5939L42.9733 54.4121C43.801 55.3948 44.6696 56.3468 45.533 57.2988C45.2316 57.5905 44.9302 57.872 44.6287 58.1638L39.7596 62.9545C38.1553 64.5718 36.5357 66.1687 34.9417 67.8066C33.3425 69.4342 31.8148 71.1283 30.4251 72.9658C29.7252 73.8717 29.061 74.8288 28.4325 75.8115C28.1209 76.3029 27.8143 76.8045 27.5282 77.3265C27.237 77.8435 26.9662 78.3706 26.6954 78.9592C25.7553 81.0117 25.7144 83.494 26.8282 85.659C28.7493 89.3902 33.3271 90.8592 37.0518 88.9347L37.4911 88.7044C37.9714 88.4587 38.4619 88.1618 38.9268 87.8547C39.3969 87.5477 39.8516 87.2303 40.3063 86.9027C41.2158 86.2476 42.0741 85.5567 42.9222 84.8452C44.6185 83.4223 46.2024 81.892 47.7351 80.3053C49.2577 78.7136 50.8211 77.1525 52.3641 75.5761L57.0543 70.9031C57.4477 70.5192 57.8411 70.1405 58.2345 69.7566C58.9754 70.3913 59.7213 71.0157 60.4877 71.6248C61.1212 72.1468 61.7599 72.6638 62.4037 73.1756L64.3962 74.6445L66.3888 76.1084C67.053 76.5946 67.753 77.0399 68.4376 77.5056C69.1223 77.9663 69.812 78.4269 70.5018 78.8773C71.1966 79.3277 71.9221 79.7423 72.6272 80.1723C73.3425 80.5971 74.0424 81.0321 74.7679 81.4467L76.9649 82.6495C77.6904 83.0538 78.4517 83.4223 79.2078 83.7909C79.964 84.1594 80.7099 84.5381 81.4968 84.8862C82.2785 85.2342 83.0449 85.5822 83.8777 85.9047C84.2966 86.0685 84.6696 86.2323 85.1192 86.396L86.5651 86.913C89.5642 87.9827 93.0231 86.9591 94.9136 84.2106C97.1616 80.9298 96.3339 76.4462 93.0589 74.189L91.8225 73.3394L91.7254 73.2729C91.705 73.2575 91.6079 73.2012 91.5517 73.1705L91.1583 72.9453C90.9028 72.8071 90.5963 72.6126 90.3153 72.4539C89.7481 72.1315 89.1657 71.7476 88.5832 71.3893C88.0008 71.0464 87.4184 70.6472 86.8359 70.2633C86.2534 69.8795 85.671 69.5007 85.1039 69.081L83.377 67.8731C82.8047 67.4636 82.2427 67.0235 81.6756 66.5987C81.1136 66.1687 80.5414 65.7593 79.9844 65.3089C79.4378 64.8533 78.8809 64.4081 78.324 63.9679C77.7722 63.5175 77.205 63.0978 76.6686 62.6269L75.0541 61.2194L73.4396 59.817C72.9235 59.3205 72.4024 58.8292 71.8761 58.348C71.5798 58.0819 71.2886 57.8106 70.9973 57.5394C72.7447 55.9118 74.4972 54.2944 76.2649 52.6975L81.1596 48.2497L86.1257 43.8992C87.776 42.4354 89.4569 41.0279 91.1327 39.5999L93.6465 37.4656L94.9033 36.3959L96.1806 35.362L101.28 31.2009C102.976 29.8087 104.728 28.5087 106.45 27.1523L109.035 25.1204C109.894 24.4396 110.788 23.8203 111.662 23.1652L116.914 19.2446L117.088 19.1167C120.041 16.8953 120.889 12.7547 118.932 9.52507C116.868 6.09072 112.397 4.9903 108.959 7.07343Z" fill="#C30000"/>
</g>
<defs>
<clipPath id="clip0_1480_41922">
<rect width="120" height="116" fill="white"/>
</clipPath>
</defs>
</svg>
